<?xml version="1.0" standalone="no"?>
<!DOCTYPE svg PUBLIC "-//W3C//DTD SVG 20010904//EN"
 "http://www.w3.org/TR/2001/REC-SVG-20010904/DTD/svg10.dtd">
<svg version="1.0" xmlns="http://www.w3.org/2000/svg"
 width="512.000000pt" height="512.000000pt" viewBox="0 0 512.000000 512.000000"
 preserveAspectRatio="xMidYMid meet">
<metadata>
Created by potrace 1.14, written by Peter Selinger 2001-2017
</metadata>
<g transform="translate(0.000000,512.000000) scale(0.100000,-0.100000)"
fill="#000000" stroke="none">
<path d="M2385 5114 c-388 -38 -647 -109 -950 -258 -274 -136 -461 -268 -673
-479 -257 -254 -443 -534 -577 -868 -200 -496 -233 -1072 -94 -1600 25 -93 34
-116 48 -114 9 1 15 8 14 14 -3 10 17 16 39 12 5 0 8 8 8 19 0 11 3 19 8 19
19 -3 33 2 27 11 -3 6 -1 10 6 10 6 0 28 15 49 33 58 50 80 67 88 67 4 0 15 8
24 17 31 34 48 44 60 37 6 -4 8 -3 4 4 -6 11 90 79 106 75 4 -2 8 2 8 8 0 22
47 54 72 50 4 0 4 7 1 16 -4 11 -3 14 5 9 6 -4 17 2 24 14 7 11 18 20 25 20 6
0 18 6 25 13 22 21 92 74 103 78 6 2 9 7 7 12 -1 4 4 6 10 5 7 -2 12 3 10 10
-1 8 3 12 10 9 7 -2 23 7 36 20 12 13 22 20 23 16 0 -4 5 3 10 16 6 15 15 21
24 17 8 -3 15 -1 15 5 0 5 11 14 25 21 13 6 22 15 19 19 -3 5 6 11 19 14 13 4
31 18 40 33 9 15 17 21 17 14 0 -7 11 -2 26 13 14 14 30 23 35 19 5 -3 9 -2 8
3 -3 20 2 27 11 13 8 -13 10 -12 10 3 0 15 11 21 32 18 4 0 5 6 2 13 -3 9 3
17 15 21 12 3 21 11 21 16 0 5 3 8 8 8 23 -4 34 3 28 17 -4 12 -2 15 9 11 8
-4 21 3 29 15 8 11 19 18 24 14 5 -3 15 6 22 20 8 13 24 27 37 30 13 4 23 10
23 16 0 5 5 6 10 3 6 -3 13 0 16 8 3 9 17 18 30 21 14 4 22 10 20 15 -3 5 8
14 25 21 16 7 34 21 40 32 8 15 13 17 24 8 8 -6 12 -17 9 -25 -3 -7 0 -16 7
-21 8 -5 10 -3 4 7 -8 12 -6 12 8 0 9 -7 17 -20 17 -27 0 -8 3 -13 8 -12 4 1
17 -3 29 -10 13 -7 33 -10 46 -7 l23 6 -4 -89 c-5 -106 13 -186 62 -279 l34
-63 -36 -48 c-77 -102 -218 -256 -310 -339 -151 -137 -210 -201 -242 -266 -57
-114 -32 -199 72 -251 66 -33 152 -35 258 -5 82 22 127 46 179 93 26 24 32 26
26 11 -17 -44 -18 -278 -1 -372 33 -193 122 -413 211 -525 62 -78 178 -163
321 -236 209 -106 367 -162 674 -236 102 -25 211 -54 242 -65 l56 -19 94 32
c111 39 253 101 363 159 l80 42 5 80 c11 178 -18 324 -114 567 -137 349 -150
468 -86 833 29 165 54 322 65 415 l6 45 77 1 c92 1 174 29 217 74 26 27 29 37
28 90 -2 60 -30 152 -89 290 -70 167 -5 316 154 349 124 26 157 58 150 146 -7
86 -55 149 -175 228 -54 35 -122 76 -151 91 -105 53 -191 114 -198 141 -15 61
48 125 136 140 100 16 170 67 170 121 0 82 -109 168 -263 208 -94 25 -192 28
-316 12 -63 -9 -117 -13 -119 -11 -3 3 -11 0 -18 -6 -16 -13 -48 -4 -39 11 4
6 10 8 14 5 5 -2 22 8 39 23 63 56 73 62 84 56 6 -4 8 -3 5 3 -9 14 19 37 33
28 6 -4 9 -2 8 3 -4 13 42 53 53 46 5 -3 9 0 9 6 0 6 4 9 9 6 5 -3 12 1 15 10
4 10 2 13 -7 8 -6 -4 -1 4 13 18 23 22 26 23 39 9 12 -14 13 -14 8 1 -4 12 3
23 23 35 17 9 30 21 30 25 0 4 6 5 14 2 9 -3 17 3 21 15 3 12 10 19 15 16 5
-3 13 2 18 11 5 9 12 14 15 12 6 -3 49 31 115 89 13 13 29 20 35 16 6 -4 8 0
4 10 -4 11 -1 17 8 17 7 0 28 13 44 28 l31 28 -122 71 c-154 89 -195 109 -338
166 -209 84 -419 139 -640 167 -88 12 -415 21 -485 14z m762 -801 c-3 -10 -5
-2 -5 17 0 19 2 27 5 18 2 -10 2 -26 0 -35z m113 -163 c0 -5 -8 -10 -17 -10
-15 0 -16 2 -3 10 19 12 20 12 20 0z m-43 -16 c-3 -3 -12 -4 -19 -1 -8 3 -5 6
6 6 11 1 17 -2 13 -5z m-80 -20 c-3 -3 -12 -4 -19 -1 -8 3 -5 6 6 6 11 1 17
-2 13 -5z m-947 -399 c13 -14 21 -25 18 -25 -2 0 -15 11 -28 25 -13 14 -21 25
-18 25 2 0 15 -11 28 -25z m-293 -367 c-3 -8 -6 -5 -6 6 -1 11 2 17 5 13 3 -3
4 -12 1 -19z m937 -92 c18 -7 43 -26 55 -42 32 -40 26 -131 -10 -170 -93 -100
-249 -53 -249 76 0 108 104 178 204 136z m-941 -13 c-7 -2 -21 -2 -30 0 -10 3
-4 5 12 5 17 0 24 -2 18 -5z"/>
</g>
</svg>
